<svg width="38" height="52" viewBox="0 0 38 52" fill="none" xmlns="http://www.w3.org/2000/svg">
<path d="M16.823 50.0208C2.63379 29.0183 0 26.8628 0 19.144C0 8.57104 8.39463 0 18.75 0C29.1054 0 37.5 8.57104 37.5 19.144C37.5 26.8628 34.8662 29.0183 20.677 50.0208C19.7458 51.3942 17.7541 51.3941 16.823 50.0208ZM18.75 27.1207C23.0647 27.1207 26.5625 23.5495 26.5625 19.144C26.5625 14.7386 23.0647 11.1674 18.75 11.1674C14.4353 11.1674 10.9375 14.7386 10.9375 19.144C10.9375 23.5495 14.4353 27.1207 18.75 27.1207Z" fill="white"/>
</svg>
