<svg width="200" height="180" viewBox="0 0 200 180" fill="none" xmlns="http://www.w3.org/2000/svg">
<path d="M181.25 0H131.25C120.898 0 112.5 8.59469 112.5 19.1881V70.3565C112.5 80.95 120.898 89.5447 131.25 89.5447H162.5V115.129C162.5 129.24 151.289 140.713 137.5 140.713H134.375C129.18 140.713 125 144.99 125 150.307V169.495C125 174.812 129.18 179.089 134.375 179.089H137.5C172.031 179.089 200 150.467 200 115.129V19.1881C200 8.59469 191.602 0 181.25 0ZM68.75 0H18.75C8.39844 0 0 8.59469 0 19.1881V70.3565C0 80.95 8.39844 89.5447 18.75 89.5447H50V115.129C50 129.24 38.7891 140.713 25 140.713H21.875C16.6797 140.713 12.5 144.99 12.5 150.307V169.495C12.5 174.812 16.6797 179.089 21.875 179.089H25C59.5312 179.089 87.5 150.467 87.5 115.129V19.1881C87.5 8.59469 79.1016 0 68.75 0Z" fill="#F3F3F3"/>
</svg>
