<svg width="50" height="52" viewBox="0 0 50 52" fill="none" xmlns="http://www.w3.org/2000/svg">
<path d="M18.75 20.7388C18.75 18.977 17.3506 17.5482 15.625 17.5482H14.0625C10.6104 17.5482 7.8125 20.4048 7.8125 23.9294V28.7152C7.8125 32.2398 10.6104 35.0964 14.0625 35.0964H15.625C17.3506 35.0964 18.75 33.6676 18.75 31.9058V20.7388ZM35.9375 35.0964C39.3896 35.0964 42.1875 32.2398 42.1875 28.7152V23.9294C42.1875 20.4048 39.3896 17.5482 35.9375 17.5482H34.375C32.6494 17.5482 31.25 18.977 31.25 20.7388V31.9058C31.25 33.6676 32.6494 35.0964 34.375 35.0964H35.9375ZM25 0C11.0527 0 0.447266 11.848 0 25.5247V27.1199C0 28.0013 0.699219 28.7152 1.5625 28.7152H3.125C3.98828 28.7152 4.6875 28.0013 4.6875 27.1199V25.5247C4.6875 14.0894 13.7998 4.78587 25 4.78587C36.2002 4.78587 45.3125 14.0894 45.3125 25.5247H45.3008C45.3086 25.7669 45.3125 42.0479 45.3125 42.0479C45.3125 44.376 43.4639 46.2634 41.1836 46.2634H31.25C31.25 43.6202 29.1514 41.4776 26.5625 41.4776H23.4375C20.8486 41.4776 18.75 43.6202 18.75 46.2634C18.75 48.9066 20.8486 51.0493 23.4375 51.0493H41.1836C46.0527 51.0493 50 47.0192 50 42.0479V25.5247C49.5527 11.848 38.9473 0 25 0Z" fill="white"/>
</svg>
