<svg width="50" height="52" viewBox="0 0 50 52" fill="none" xmlns="http://www.w3.org/2000/svg">
<path d="M17.1874 21.5366H32.8123C33.6756 21.5366 34.3748 20.8227 34.3748 19.9413V18.346C34.3748 17.4647 33.6756 16.7508 32.8123 16.7508H17.1874C16.3241 16.7508 15.6249 17.4647 15.6249 18.346V19.9413C15.6249 20.8227 16.3241 21.5366 17.1874 21.5366ZM15.6249 29.513C15.6249 30.3944 16.3241 31.1083 17.1874 31.1083H32.8123C33.6756 31.1083 34.3748 30.3944 34.3748 29.513V27.9177C34.3748 27.0363 33.6756 26.3225 32.8123 26.3225H17.1874C16.3241 26.3225 15.6249 27.0363 15.6249 27.9177V29.513ZM24.9999 41.5903C23.3964 41.5903 21.7929 41.0858 20.4237 40.0758L0 25.0123V46.2635C0 48.9067 2.09862 51.0493 4.68748 51.0493H45.3123C47.9011 51.0493 49.9998 48.9067 49.9998 46.2635V25.0123L29.576 40.0758C28.2069 41.0848 26.6034 41.5903 24.9999 41.5903ZM48.2039 16.2473C47.3396 15.5553 46.5203 14.9042 45.3123 13.973V9.572C45.3123 6.92881 43.2137 4.78615 40.6248 4.78615H33.0516C32.7547 4.5668 32.4784 4.36141 32.1688 4.13209C30.5272 2.9087 27.2655 -0.0345892 24.9999 0.000307627C22.7343 -0.0345892 19.4735 2.9087 17.831 4.13209C17.5214 4.36141 17.245 4.5668 16.9482 4.78615H9.37495C6.7861 4.78615 4.68748 6.92881 4.68748 9.572V13.973C3.47948 14.9032 2.66014 15.5553 1.79589 16.2473C1.23648 16.6949 0.784093 17.2665 0.47296 17.9189C0.161828 18.5713 9.62697e-05 19.2875 0 20.0131L0 21.075L9.37495 27.9895V9.572H40.6248V27.9895L49.9998 21.075V20.0131C49.9998 18.5435 49.3376 17.1546 48.2039 16.2473Z" fill="white"/>
</svg>
