<svg width="25" height="23" viewBox="0 0 25 23" fill="none" xmlns="http://www.w3.org/2000/svg">
<path d="M5.59598 23H0.412946V7.64408H5.59598V23ZM3.00167 5.54939C1.34431 5.54939 0 4.28641 0 2.7616C1.18627e-08 2.02918 0.316247 1.32676 0.87917 0.808854C1.44209 0.290954 2.20558 0 3.00167 0C3.79777 0 4.56125 0.290954 5.12418 0.808854C5.6871 1.32676 6.00335 2.02918 6.00335 2.7616C6.00335 4.28641 4.65848 5.54939 3.00167 5.54939ZM24.9944 23H19.8225V15.5248C19.8225 13.7433 19.7835 11.4587 17.1278 11.4587C14.433 11.4587 14.0201 13.3942 14.0201 15.3965V23H8.84263V7.64408H13.8136V9.73877H13.8862C14.5781 8.53227 16.2684 7.25902 18.7902 7.25902C24.0357 7.25902 25 10.437 25 14.5648V23H24.9944Z" fill="white"/>
</svg>
