<svg width="28" height="23" viewBox="0 0 28 23" fill="none" xmlns="http://www.w3.org/2000/svg">
<path d="M27.5656 9.35828V10.1328C27.5656 10.7745 27.0513 11.2947 26.417 11.2947H26.0341L24.7844 20.1435C24.6228 21.2882 23.6536 22.1385 22.5104 22.1385H5.05512C3.91196 22.1385 2.94277 21.2882 2.78106 20.1435L1.53142 11.2947H1.14856C0.514222 11.2947 0 10.7745 0 10.1328V9.35828C0 8.7166 0.514222 8.19644 1.14856 8.19644H4.37129L9.48145 1.08882C9.97892 0.39694 10.9366 0.243916 11.6207 0.747139C12.3047 1.25036 12.4559 2.21919 11.9585 2.91112L8.15849 8.19644H19.4071L15.6071 2.91107C15.1096 2.21919 15.2609 1.25031 15.9449 0.74709C16.6288 0.243868 17.5867 0.396844 18.0842 1.08877L23.1943 8.19644H26.417C27.0513 8.19644 27.5656 8.7166 27.5656 9.35828ZM14.9313 17.8785V12.4565C14.9313 11.8148 14.4171 11.2947 13.7828 11.2947C13.1484 11.2947 12.6342 11.8148 12.6342 12.4565V17.8785C12.6342 18.5201 13.1484 19.0403 13.7828 19.0403C14.4171 19.0403 14.9313 18.5201 14.9313 17.8785ZM20.2913 17.8785V12.4565C20.2913 11.8148 19.7771 11.2947 19.1427 11.2947C18.5084 11.2947 17.9942 11.8148 17.9942 12.4565V17.8785C17.9942 18.5201 18.5084 19.0403 19.1427 19.0403C19.7771 19.0403 20.2913 18.5201 20.2913 17.8785ZM9.57137 17.8785V12.4565C9.57137 11.8148 9.05715 11.2947 8.42281 11.2947C7.78847 11.2947 7.27424 11.8148 7.27424 12.4565V17.8785C7.27424 18.5201 7.78847 19.0403 8.42281 19.0403C9.05715 19.0403 9.57137 18.5201 9.57137 17.8785Z" fill="black"/>
</svg>
