<svg width="24" height="18" viewBox="0 0 24 18" fill="none" xmlns="http://www.w3.org/2000/svg">
<path d="M21.5331 4.48592C21.5483 4.68279 21.5483 4.87969 21.5483 5.07656C21.5483 11.0812 16.5991 18 7.55333 18C4.7665 18 2.17768 17.2547 0 15.961C0.395955 16.0031 0.776628 16.0172 1.18782 16.0172C3.48728 16.0172 5.60407 15.3 7.29444 14.0766C5.13199 14.0344 3.31979 12.7266 2.69542 10.9266C3.00001 10.9687 3.30456 10.9969 3.62439 10.9969C4.066 10.9969 4.50766 10.9406 4.9188 10.8422C2.66499 10.4203 0.974582 8.59218 0.974582 6.38437V6.32814C1.62938 6.66564 2.39087 6.87657 3.19792 6.90467C1.87304 6.08902 1.00505 4.69685 1.00505 3.12184C1.00505 2.27811 1.24866 1.50467 1.67508 0.829666C4.09642 3.58591 7.73605 5.38588 11.8172 5.58279C11.7411 5.24529 11.6954 4.89376 11.6954 4.54219C11.6954 2.03904 13.8883 0 16.6142 0C18.0304 0 19.3096 0.548436 20.2081 1.43437C21.3198 1.23751 22.3858 0.857802 23.33 0.337502C22.9644 1.39221 22.1878 2.27815 21.1675 2.84061C22.1574 2.74222 23.1168 2.48904 24 2.13752C23.3301 3.03748 22.4924 3.83901 21.5331 4.48592Z" fill="white"/>
</svg>
